<svg width="1424" height="737" viewBox="0 0 1424 737" fill="none" xmlns="http://www.w3.org/2000/svg">
<path fill-rule="evenodd" clip-rule="evenodd" d="M408 527H602C590.626 602.014 570.191 625.175 505.264 631C436.13 620.857 418.171 594.822 408 527ZM562.883 554.847H445.003C456.594 589.298 472.998 595.686 505.264 603.153C542.067 593.914 555.747 584.059 562.883 554.847Z" fill="#47B556"/>
<path fill-rule="evenodd" clip-rule="evenodd" d="M1012 1H1206C1194.63 76.0141 1174.19 99.1746 1109.26 105C1040.13 94.8571 1022.17 68.8216 1012 1ZM1166.88 28.847H1049C1060.59 63.298 1077 69.6862 1109.26 77.153C1146.07 67.9142 1159.75 58.0589 1166.88 28.847Z" fill="#47B556"/>
<path d="M601 211H408C422.877 287.42 445.257 308.569 507.377 312C572.331 304.732 587.639 276.735 601 211Z" fill="#47B556"/>
<path d="M1003 1H809C823.954 79.6901 846.45 101.467 908.892 105C974.182 97.5156 989.57 68.6874 1003 1Z" fill="#47B556"/>
<path d="M407.459 105H208C223.375 183.37 246.504 205.058 310.703 208.577C377.831 201.123 393.651 172.412 407.459 105Z" fill="#47B556"/>
<path d="M199.459 104.577H0C15.3752 26.2069 38.504 4.51894 102.703 1C169.831 8.4539 185.651 37.1648 199.459 104.577Z" fill="#47B556"/>
<path d="M409 106H455.902L506.549 196.435L558.332 106H602L505.769 314L409 106Z" fill="#47B556"/>
<path d="M0 208.851H48.3406L100.541 118.292L153.912 208.851H198.919L99.7365 0.565918L0 208.851Z" fill="#47B556"/>
<path d="M700 320V396.902L726.133 421.783L700 451.187V523L796 421.783L700 320Z" fill="#47B556"/>
<path d="M700 318V527C625.85 510.889 605.329 486.654 602 419.385C609.053 349.046 636.218 332.468 700 318Z" fill="#47B556"/>
<path d="M199 213H0C15.3397 287.907 38.4154 308.637 102.466 312C169.44 304.875 185.224 277.433 199 213Z" fill="#47B556"/>
<path fill-rule="evenodd" clip-rule="evenodd" d="M311.002 322.072C369.958 322.072 411.066 374.43 407.821 426.789C407.821 485.832 368.336 528.721 311.002 528.721C256.913 533.177 209.315 483.604 208.233 426.789C204.447 369.974 247.177 319.844 311.002 322.072ZM361.304 426.789C359.141 396.153 338.046 376.658 311.002 373.316C283.416 375.544 261.24 388.912 258.535 426.789C263.403 455.753 275.303 475.248 311.002 479.147C334.801 476.362 354.814 465.779 361.304 426.789Z" fill="#47B556"/>
<path fill-rule="evenodd" clip-rule="evenodd" d="M507.912 322.071C565.1 322.071 604.974 373.924 601.826 425.776C601.826 484.249 563.526 526.724 507.912 526.724C455.445 531.137 409.275 482.042 408.226 425.776C404.553 369.511 446.002 319.864 507.912 322.071ZM556.705 425.776C554.606 395.437 534.145 376.13 507.912 372.82C481.154 375.027 459.643 388.266 457.019 425.776C461.741 454.461 473.284 473.768 507.912 477.629C530.997 474.871 550.409 464.39 556.705 425.776Z" fill="#47B556"/>
<path d="M602 631.276H675.513L699.297 659.01L727.405 631.276H796.054L699.297 733.155L602 631.276Z" fill="#47B556"/>
<path d="M210 634H283.514L307.297 661.734L335.405 634H404.054L307.297 735.879L210 634Z" fill="#47B556"/>
<path d="M408 735.876H481.516L505.369 708.143L533.409 735.876H602.06L505.554 634L408 735.876Z" fill="#47B556"/>
<path fill-rule="evenodd" clip-rule="evenodd" d="M602.12 631.011H795.634C784.288 556.71 763.905 533.77 699.141 528C630.18 538.046 612.266 563.834 602.12 631.011ZM756.615 603.429H639.03C650.593 569.305 666.955 562.978 699.141 555.582C735.851 564.733 749.497 574.495 756.615 603.429Z" fill="#47B556"/>
<path d="M602 312H796L700.344 110L602 312Z" fill="#47B556"/>
<path d="M5 528H52.027L102.026 642.331L154.73 528H198.514L102.026 736.285L5 528Z" fill="#47B556"/>
<path d="M0 208.851H48.3406L100.541 118.292L153.912 208.851H198.919L99.7365 0.565918L0 208.851Z" fill="#47B556"/>
<path d="M199.459 424H0C15.3752 502.37 38.504 524.058 102.703 527.577C169.831 520.123 185.651 491.412 199.459 424Z" fill="#47B556"/>
<path d="M210 528H283.514L307.297 555.734L335.405 528H404.054L307.297 629.879L210 528Z" fill="#47B556"/>
<path d="M210 213H283.493L307.27 239.95L335.37 213H404L307.27 312L210 213Z" fill="#47B556"/>
<path d="M602 1H675.493L699.27 29.3111L727.37 1H796L699.27 105L602 1Z" fill="#47B556"/>
<path d="M5 322H78.5135L102.297 349.734L130.405 322H199.054L102.297 423.879L5 322Z" fill="#47B556"/>
<path d="M1228 1H1302.25L1326.27 29.3111L1354.66 1H1424L1326.27 105L1228 1Z" fill="#47B556"/>
<path d="M1228.75 630.976H1302.26L1326.05 658.709L1354.15 630.976H1422.8L1326.05 732.854L1228.75 630.976Z" fill="#47B556"/>
<path d="M809 631H882.513L906.297 658.734L934.405 631H1003.05L906.297 732.879L809 631Z" fill="#47B556"/>
<path d="M1016 732.879H1089.51L1113.3 705.145L1141.41 732.879H1210.05L1113.3 631L1016 732.879Z" fill="#47B556"/>
<path fill-rule="evenodd" clip-rule="evenodd" d="M1016 523H1206C1194.86 598.014 1174.85 621.175 1111.26 627C1043.55 616.857 1025.96 590.822 1016 523ZM1167.69 550.847H1052.24C1063.59 585.298 1079.66 591.686 1111.26 599.153C1147.3 589.914 1160.7 580.059 1167.69 550.847Z" fill="#47B556"/>
<path d="M809 528.879H882.513L906.297 501.145L934.405 528.879H1003.05L906.297 427L809 528.879Z" fill="#47B556"/>
<path d="M211 105H284.493L308.27 76.6889L336.37 105H405L308.27 0.999992L211 105Z" fill="#47B556"/>
<path fill-rule="evenodd" clip-rule="evenodd" d="M809 320H1003C991.626 395.014 971.191 418.175 906.264 424C837.13 413.857 819.171 387.822 809 320ZM963.883 347.847H846.003C857.594 382.298 873.998 388.686 906.264 396.153C943.067 386.914 956.747 377.059 963.883 347.847Z" fill="#47B556"/>
<path fill-rule="evenodd" clip-rule="evenodd" d="M408 1H602C590.626 76.0141 570.191 99.1746 505.264 105C436.13 94.8571 418.171 68.8216 408 1ZM562.883 28.847H445.003C456.594 63.298 472.998 69.6862 505.264 77.153C542.067 67.9142 555.747 58.0589 562.883 28.847Z" fill="#47B556"/>
<path fill-rule="evenodd" clip-rule="evenodd" d="M1229 622H1423C1411.63 550.592 1391.19 528.545 1326.26 523C1257.13 532.655 1239.17 557.439 1229 622ZM1383.88 595.492H1266C1277.59 562.697 1294 556.616 1326.26 549.508C1363.07 558.303 1376.75 567.684 1383.88 595.492Z" fill="#47B556"/>
<path d="M1205 211H1016C1030.57 288.177 1052.48 309.535 1113.32 313C1176.92 305.66 1191.92 277.386 1205 211Z" fill="#47B556"/>
<path d="M809 108H1003L907.344 313L809 108Z" fill="#47B556"/>
<path d="M1228 315.455H1423.14L1326.92 110L1228 315.455Z" fill="#47B556"/>
<path d="M1017 110H1062.93L1112.53 197.826L1163.24 110H1206L1111.76 312L1017 110Z" fill="#47B556"/>
<path d="M1326 320V395.134L1352.68 418.898L1326 446.982V518L1424 418.898L1326 320Z" fill="#47B556"/>
<path d="M1327 320V519C1252.09 503.66 1231.36 480.585 1228 416.534C1235.12 349.56 1262.57 333.776 1327 320Z" fill="#47B556"/>
<path fill-rule="evenodd" clip-rule="evenodd" d="M1113.85 320.069C1169.86 320.069 1208.91 370.404 1205.83 420.739C1205.83 477.5 1168.32 518.732 1113.85 518.732C1062.47 523.016 1017.25 475.358 1016.22 420.739C1012.62 366.12 1053.22 317.927 1113.85 320.069ZM1161.64 420.739C1159.58 391.288 1139.54 372.546 1113.85 369.333C1087.65 371.475 1066.58 384.326 1064.01 420.739C1068.63 448.584 1079.94 467.326 1113.85 471.074C1136.46 468.397 1155.47 458.223 1161.64 420.739Z" fill="#47B556"/>
<path d="M809 532H882.513L906.297 559.734L934.405 532H1003.05L906.297 633.879L809 532Z" fill="#47B556"/>
</svg>
